<svg width="22" height="19" viewBox="0 0 22 19" fill="currentColor"  xmlns="http://www.w3.org/2000/svg">
<path d="M3.19239 2.65576H18.3731C18.5504 2.65567 18.7276 2.66692 18.9035 2.68944C18.8439 2.27091 18.7001 1.8688 18.4809 1.50733C18.2616 1.14587 17.9715 0.832541 17.6279 0.586248C17.2843 0.339954 16.8944 0.165793 16.4817 0.074264C16.0689 -0.0172644 15.6419 -0.0242641 15.2264 0.0536868L2.74172 2.18516H2.72748C1.94381 2.33502 1.24692 2.7784 0.779134 3.42476C1.4839 2.92347 2.32754 2.65464 3.19239 2.65576ZM18.3731 3.79431H3.19239C2.38743 3.79519 1.61568 4.11535 1.04649 4.68455C0.47729 5.25375 0.157129 6.02549 0.15625 6.83046V15.9389C0.157129 16.7439 0.47729 17.5156 1.04649 18.0848C1.61568 18.654 2.38743 18.9742 3.19239 18.975H18.3731C19.1781 18.9742 19.9498 18.654 20.519 18.0848C21.0882 17.5156 21.4084 16.7439 21.4093 15.9389V6.83046C21.4084 6.02549 21.0882 5.25375 20.519 4.68455C19.9498 4.11535 19.1781 3.79519 18.3731 3.79431ZM16.1197 12.9027C15.8195 12.9027 15.526 12.8137 15.2763 12.6469C15.0267 12.4801 14.8321 12.243 14.7172 11.9656C14.6023 11.6882 14.5723 11.383 14.6308 11.0885C14.6894 10.794 14.834 10.5235 15.0463 10.3112C15.2586 10.0989 15.5291 9.95435 15.8236 9.89577C16.118 9.8372 16.4233 9.86726 16.7007 9.98216C16.9781 10.0971 17.2152 10.2916 17.382 10.5413C17.5488 10.7909 17.6378 11.0844 17.6378 11.3847C17.6378 11.7873 17.4779 12.1734 17.1932 12.4581C16.9085 12.7428 16.5223 12.9027 16.1197 12.9027Z"  />
</svg>
