<svg width="18" height="19" viewBox="0 0 18 19" fill="currentColor" xmlns="http://www.w3.org/2000/svg">
<path d="M10.3614 0.900075C10.027 0.59966 9.59341 0.433472 9.14391 0.433472C8.69441 0.433472 8.26078 0.59966 7.92641 0.900075L1.2469 6.90193C1.05698 7.07271 0.905104 7.28152 0.80112 7.51481C0.697135 7.74809 0.643369 8.00064 0.643311 8.25605V16.824C0.643311 17.3072 0.835238 17.7705 1.17687 18.1122C1.5185 18.4538 1.98186 18.6457 2.465 18.6457H4.89391C5.37705 18.6457 5.84041 18.4538 6.18204 18.1122C6.52367 17.7705 6.7156 17.3072 6.7156 16.824V11.9662C6.7156 11.8052 6.77957 11.6507 6.89345 11.5368C7.00733 11.423 7.16178 11.359 7.32283 11.359H10.9662C11.1272 11.359 11.2817 11.423 11.3956 11.5368C11.5095 11.6507 11.5734 11.8052 11.5734 11.9662V16.824C11.5734 17.3072 11.7654 17.7705 12.107 18.1122C12.4486 18.4538 12.912 18.6457 13.3951 18.6457H15.824C16.3072 18.6457 16.7705 18.4538 17.1122 18.1122C17.4538 17.7705 17.6457 17.3072 17.6457 16.824V8.25605C17.6457 8.00064 17.5919 7.74809 17.4879 7.51481C17.3839 7.28152 17.232 7.07271 17.0421 6.90193L10.3626 0.900075H10.3614Z"  />
</svg>
