<svg width="16" height="11" viewBox="0 0 16 11" fill="none" xmlns="http://www.w3.org/2000/svg">
<path d="M10.872 9C10.5631 9.87389 9.72966 10.5 8.75 10.5C7.77034 10.5 6.93691 9.87389 6.62803 9H1.25C0.835786 9 0.5 8.66421 0.5 8.25C0.5 7.83579 0.835786 7.5 1.25 7.5H6.62803C6.93691 6.62611 7.77034 6 8.75 6C9.72966 6 10.5631 6.62611 10.872 7.5H14.75C15.1642 7.5 15.5 7.83579 15.5 8.25C15.5 8.66421 15.1642 9 14.75 9H10.872ZM6.37197 3.75C6.06309 4.62389 5.22966 5.25 4.25 5.25C3.27034 5.25 2.43691 4.62389 2.12803 3.75H1.25C0.835786 3.75 0.5 3.41421 0.5 3C0.5 2.58579 0.835786 2.25 1.25 2.25H2.12803C2.43691 1.37611 3.27034 0.75 4.25 0.75C5.22966 0.75 6.06309 1.37611 6.37197 2.25H14.75C15.1642 2.25 15.5 2.58579 15.5 3C15.5 3.41421 15.1642 3.75 14.75 3.75H6.37197ZM4.25 3.75C4.66421 3.75 5 3.41421 5 3C5 2.58579 4.66421 2.25 4.25 2.25C3.83579 2.25 3.5 2.58579 3.5 3C3.5 3.41421 3.83579 3.75 4.25 3.75ZM8.75 9C9.16421 9 9.5 8.66421 9.5 8.25C9.5 7.83579 9.16421 7.5 8.75 7.5C8.33579 7.5 8 7.83579 8 8.25C8 8.66421 8.33579 9 8.75 9Z" fill="white"/>
</svg>
