<svg width="8" height="7" viewBox="0 0 8 7" fill="none" xmlns="http://www.w3.org/2000/svg">
<path d="M0.795906 2.896H3.53191V0.159999H4.46791V2.896H7.20391V3.832H4.46791V6.568H3.53191V3.832H0.795906V2.896Z" fill="#C3D0E2"/>
<path d="M0.795906 2.896V2.796H0.695906V2.896H0.795906ZM3.53191 2.896V2.996H3.63191V2.896H3.53191ZM3.53191 0.159999V0.0599994H3.43191V0.159999H3.53191ZM4.46791 0.159999H4.56791V0.0599994H4.46791V0.159999ZM4.46791 2.896H4.36791V2.996H4.46791V2.896ZM7.20391 2.896H7.30391V2.796H7.20391V2.896ZM7.20391 3.832V3.932H7.30391V3.832H7.20391ZM4.46791 3.832V3.732H4.36791V3.832H4.46791ZM4.46791 6.568V6.668H4.56791V6.568H4.46791ZM3.53191 6.568H3.43191V6.668H3.53191V6.568ZM3.53191 3.832H3.63191V3.732H3.53191V3.832ZM0.795906 3.832H0.695906V3.932H0.795906V3.832ZM0.795906 2.996H3.53191V2.796H0.795906V2.996ZM3.63191 2.896V0.159999H3.43191V2.896H3.63191ZM3.53191 0.259999H4.46791V0.0599994H3.53191V0.259999ZM4.36791 0.159999V2.896H4.56791V0.159999H4.36791ZM4.46791 2.996H7.20391V2.796H4.46791V2.996ZM7.10391 2.896V3.832H7.30391V2.896H7.10391ZM7.20391 3.732H4.46791V3.932H7.20391V3.732ZM4.36791 3.832V6.568H4.56791V3.832H4.36791ZM4.46791 6.468H3.53191V6.668H4.46791V6.468ZM3.63191 6.568V3.832H3.43191V6.568H3.63191ZM3.53191 3.732H0.795906V3.932H3.53191V3.732ZM0.895906 3.832V2.896H0.695906V3.832H0.895906Z" fill="#C3D0E2"/>
</svg>
