<svg width="14" height="14" viewBox="0 0 14 14" fill="none" xmlns="http://www.w3.org/2000/svg">
<path d="M10.3912 9.56617L13.073 12.2479C13.3008 12.4757 13.3008 12.845 13.073 13.0728C12.8452 13.3006 12.4758 13.3006 12.248 13.0728L9.56629 10.3911C8.66815 11.1096 7.5289 11.5392 6.28931 11.5392C3.38981 11.5392 1.03931 9.18868 1.03931 6.28919C1.03931 3.38969 3.38981 1.03918 6.28931 1.03918C9.1888 1.03918 11.5393 3.38969 11.5393 6.28919C11.5393 7.52878 11.1097 8.66803 10.3912 9.56617ZM6.28931 10.3725C8.54447 10.3725 10.3726 8.54435 10.3726 6.28919C10.3726 4.03402 8.54447 2.20585 6.28931 2.20585C4.03414 2.20585 2.20597 4.03402 2.20597 6.28919C2.20597 8.54435 4.03414 10.3725 6.28931 10.3725Z" fill="#2F3542"/>
</svg>
